<?xml version="1.0" encoding="UTF-8" standalone="no"?>
<!-- Generator: Adobe Illustrator 25.4.1, SVG Export Plug-In . SVG Version: 6.00 Build 0)  -->

<svg
   version="1.0"
   id="Layer_1"
   x="0px"
   y="0px"
   viewBox="0 0 273.39462 72.785775"
   xml:space="preserve"
   sodipodi:docname="sedac.svg"
   inkscape:version="1.2.2 (732a01da63, 2022-12-09, custom)"
   width="273.39462"
   height="72.785774"
   xmlns:inkscape="http://www.inkscape.org/namespaces/inkscape"
   xmlns:sodipodi="http://sodipodi.sourceforge.net/DTD/sodipodi-0.dtd"
   xmlns:xlink="http://www.w3.org/1999/xlink"
   xmlns="http://www.w3.org/2000/svg"
   xmlns:svg="http://www.w3.org/2000/svg"><defs
   id="defs103"><linearGradient
   id="linearGradient5464"><stop
     style="stop-color:#000000;stop-opacity:1;"
     offset="0"
     id="stop5468" /><stop
     style="stop-color:#000000;stop-opacity:0;"
     offset="1"
     id="stop5470" /></linearGradient><linearGradient
   id="linearGradient5464-1"><stop
     style="stop-color:#28166f;stop-opacity:1;"
     offset="0"
     id="stop5460" /><stop
     style="stop-color:#0093dd;stop-opacity:1;"
     offset="1"
     id="stop5462" /></linearGradient>
	
	
	
	
	
	
	
<linearGradient
   inkscape:collect="always"
   xlink:href="#linearGradient5464-1"
   id="linearGradient5466"
   x1="50.952938"
   y1="17.47436"
   x2="50.819313"
   y2="75.869804"
   gradientUnits="userSpaceOnUse"
   spreadMethod="repeat" /><linearGradient
   inkscape:collect="always"
   xlink:href="#linearGradient5464-1"
   id="linearGradient8475"
   gradientUnits="userSpaceOnUse"
   x1="50.952938"
   y1="17.47436"
   x2="50.819313"
   y2="75.869804"
   spreadMethod="repeat" /><linearGradient
   inkscape:collect="always"
   xlink:href="#linearGradient5464-1"
   id="linearGradient8477"
   gradientUnits="userSpaceOnUse"
   x1="50.952938"
   y1="17.47436"
   x2="50.819313"
   y2="75.869804"
   spreadMethod="repeat" /><linearGradient
   inkscape:collect="always"
   xlink:href="#linearGradient5464-1"
   id="linearGradient8479"
   gradientUnits="userSpaceOnUse"
   x1="50.952938"
   y1="17.47436"
   x2="50.819313"
   y2="75.869804"
   spreadMethod="repeat" /></defs><sodipodi:namedview
   id="namedview101"
   pagecolor="#ffffff"
   bordercolor="#000000"
   borderopacity="0.25"
   inkscape:showpageshadow="2"
   inkscape:pageopacity="0"
   inkscape:pagecheckerboard="0"
   inkscape:deskcolor="#d1d1d1"
   showgrid="false"
   inkscape:zoom="2.1796561"
   inkscape:cx="77.764562"
   inkscape:cy="25.462733"
   inkscape:window-width="1859"
   inkscape:window-height="1016"
   inkscape:window-x="0"
   inkscape:window-y="0"
   inkscape:window-maximized="1"
   inkscape:current-layer="Layer_1"
   showguides="false"
   inkscape:lockguides="false" />
<style
   type="text/css"
   id="style18">
	.st0{fill:#FFFFFF;}
	.st1{fill-rule:evenodd;clip-rule:evenodd;fill:#50B848;}
	.st2{fill:none;}
	.st3{fill-rule:evenodd;clip-rule:evenodd;fill:#FFFFFF;}
	.st4{fill:#53B949;}
	.st5{fill-rule:evenodd;clip-rule:evenodd;fill:#0095DA;}
</style>
<g
   id="g8473"
   inkscape:label="logo"
   transform="scale(0.90777968)"><rect
     x="0"
     y="0"
     class="st0"
     width="80.259323"
     height="80.18"
     id="rect20"
     inkscape:label="borda"
     style="stroke-width:0.532111" /><rect
     x="2.7999992"
     y="64.130005"
     class="st4"
     width="74.300003"
     height="13.27"
     id="rect88"
     inkscape:label="gramado"
     style="display:inline;fill:#53b949;fill-opacity:1" /><g
     id="g96"
     inkscape:label="congresso"
     transform="translate(-14.17,-16.6)"
     style="display:inline;fill:url(#linearGradient5466);fill-opacity:1;fill-rule:nonzero">
		<rect
   x="16.959999"
   y="51.32"
   class="st5"
   width="4.3099999"
   height="24.32"
   id="rect90"
   style="display:inline;fill:url(#linearGradient8475);fill-opacity:1;fill-rule:nonzero" />
		<path
   class="st5"
   d="M 21.27,46.82 V 25.84 h 8.37 v 49.8 H 62.8 C 53.6,73.83 43.21,66.83 38.23,61.85 H 91.31 V 19.42 H 16.96 v 27.39 h 4.31 z"
   id="path92"
   style="display:inline;fill:url(#linearGradient8477);fill-opacity:1;fill-rule:nonzero" />
		<rect
   x="16.959999"
   y="48.32"
   class="st5"
   width="4.3099999"
   height="1.52"
   id="rect94"
   inkscape:label="rect94"
   style="fill:url(#linearGradient8479);fill-opacity:1;fill-rule:nonzero" />
	</g></g><g
   id="g8294"
   inkscape:label="texto"
   style="fill:#ffffff"
   transform="translate(-7.4015404,1.8351519)"><g
     aria-label="Seção de Administração de Datacenter"
     id="text371"
     style="font-size:9.98746px;fill:#ffffff;stroke-width:0.832288"
     inkscape:label="secao-admin-datacenter"
     transform="matrix(1.0048222,0,0,1.2758257,-12.262075,-47.649062)"><path
       d="m 101.47071,83.014426 v 0.960708 q -0.56082,-0.268218 -1.05825,-0.399888 -0.497418,-0.131671 -0.960703,-0.131671 -0.804654,0 -1.243556,0.312108 -0.434025,0.312108 -0.434025,0.887558 0,0.482792 0.287724,0.731503 0.292602,0.243835 1.102132,0.395012 l 0.594956,0.121917 q 1.102132,0.209698 1.623942,0.741257 0.52668,0.526682 0.52668,1.41424 0,1.058242 -0.712,1.604431 -0.70712,0.546189 -2.077468,0.546189 -0.516929,0 -1.102132,-0.117041 -0.580326,-0.11704 -1.204542,-0.346245 v -1.014351 q 0.599833,0.336492 1.175282,0.507176 0.575449,0.170684 1.131392,0.170684 0.843667,0 1.302078,-0.331615 0.45841,-0.331615 0.45841,-0.946078 0,-0.536436 -0.33162,-0.83879 -0.32674,-0.302355 -1.077746,-0.453532 l -0.599833,-0.117041 q -1.102132,-0.219451 -1.594678,-0.687613 -0.492545,-0.468162 -0.492545,-1.302076 0,-0.965585 0.677859,-1.521527 0.682737,-0.555943 1.877526,-0.555943 0.512052,0 1.043607,0.09266 0.53156,0.09266 1.08751,0.277971 z"
       id="path564"
       style="fill:#ffffff" /><path
       d="m 108.07862,87.101092 v 0.438902 h -4.12568 q 0.0585,0.926571 0.55594,1.41424 0.5023,0.482792 1.39474,0.482792 0.51693,0 0.99972,-0.126794 0.48767,-0.126793 0.96558,-0.380381 v 0.848544 q -0.48279,0.204821 -0.98997,0.312108 -0.50717,0.107287 -1.02898,0.107287 -1.30695,0 -2.07259,-0.760764 -0.76076,-0.760763 -0.76076,-2.057963 0,-1.341089 0.72175,-2.126236 0.72662,-0.790024 1.95555,-0.790024 1.10213,0 1.74098,0.711997 0.64372,0.70712 0.64372,1.926292 z m -0.89731,-0.263341 q -0.01,-0.73638 -0.41452,-1.175282 -0.39989,-0.438902 -1.06312,-0.438902 -0.75101,0 -1.20454,0.424272 -0.44866,0.424272 -0.51693,1.194789 z"
       id="path566"
       style="fill:#ffffff" /><path
       d="m 113.48199,84.804171 v 0.838791 q -0.38038,-0.209698 -0.76564,-0.312108 -0.38038,-0.107287 -0.77051,-0.107287 -0.87293,0 -1.35572,0.555942 -0.4828,0.551066 -0.4828,1.550788 0,0.999721 0.4828,1.555663 0.48279,0.551066 1.35572,0.551066 0.39013,0 0.77051,-0.10241 0.38526,-0.107287 0.76564,-0.316985 v 0.829037 q -0.3755,0.175561 -0.78027,0.263342 -0.39989,0.08778 -0.85342,0.08778 -1.2338,0 -1.96043,-0.775394 -0.72662,-0.775393 -0.72662,-2.092099 0,-1.336213 0.7315,-2.101854 0.73638,-0.76564 2.01407,-0.76564 0.41452,0 0.80953,0.08778 0.39501,0.0829 0.76564,0.253588 z m -1.26794,5.252195 q 0.26822,0.302355 0.39989,0.555943 0.13167,0.258464 0.13167,0.492545 0,0.434026 -0.2926,0.653477 -0.2926,0.224327 -0.86805,0.224327 -0.22433,0 -0.4389,-0.02926 -0.2097,-0.02926 -0.4194,-0.08778 v -0.638847 q 0.16581,0.0829 0.34625,0.117041 0.18044,0.03901 0.40964,0.03901 0.28772,0 0.43403,-0.117041 0.1463,-0.117041 0.1463,-0.341368 0,-0.146301 -0.10729,-0.360875 -0.10241,-0.209698 -0.32186,-0.507176 z"
       id="path568"
       style="fill:#ffffff" /><path
       d="m 117.52477,87.31079 q -1.0875,0 -1.5069,0.248711 -0.41939,0.248711 -0.41939,0.848544 0,0.477915 0.3121,0.760763 0.31699,0.277972 0.8583,0.277972 0.74613,0 1.19479,-0.526683 0.45353,-0.531559 0.45353,-1.409363 V 87.31079 Z m 1.78974,-0.370629 v 3.116205 h -0.89731 v -0.829037 q -0.30723,0.497422 -0.76564,0.73638 -0.45841,0.234081 -1.12164,0.234081 -0.83879,0 -1.33621,-0.468162 -0.49255,-0.473039 -0.49255,-1.263063 0,-0.921694 0.61447,-1.389856 0.61934,-0.468163 1.84339,-0.468163 h 1.25818 v -0.08778 q 0,-0.61934 -0.40964,-0.955831 -0.40477,-0.341368 -1.14115,-0.341368 -0.46816,0 -0.91194,0.112164 -0.44378,0.112163 -0.85342,0.336491 v -0.829037 q 0.49255,-0.190191 0.95583,-0.282848 0.46329,-0.09753 0.90219,-0.09753 1.18504,0 1.77024,0.614463 0.5852,0.614463 0.5852,1.862895 z m -2.33593,-3.56486 -0.27797,-0.268218 q -0.10729,-0.09753 -0.19019,-0.141424 -0.078,-0.04877 -0.14143,-0.04877 -0.18531,0 -0.27309,0.180437 -0.0878,0.175561 -0.0975,0.575449 h -0.60958 q 0.01,-0.658353 0.25846,-1.014351 0.24871,-0.360875 0.69249,-0.360875 0.18532,0 0.34137,0.06827 0.15605,0.06827 0.33649,0.229204 l 0.27797,0.268218 q 0.10729,0.09753 0.18532,0.146301 0.0829,0.04389 0.1463,0.04389 0.18531,0 0.27309,-0.175561 0.0878,-0.180438 0.0975,-0.580326 h 0.60958 q -0.01,0.658353 -0.25846,1.019228 -0.24871,0.355998 -0.69249,0.355998 -0.18532,0 -0.34137,-0.06827 -0.15605,-0.06827 -0.33649,-0.229205 z"
       id="path570"
       style="fill:#ffffff" /><path
       d="m 123.27926,85.223567 q -0.72175,0 -1.14114,0.565696 -0.4194,0.560819 -0.4194,1.541034 0,0.980214 0.41452,1.54591 0.41939,0.560819 1.14602,0.560819 0.71687,0 1.13627,-0.565696 0.41939,-0.565696 0.41939,-1.541033 0,-0.970462 -0.41939,-1.536158 -0.4194,-0.570572 -1.13627,-0.570572 z m 0,-0.760764 q 1.17041,0 1.83851,0.760764 0.66811,0.760763 0.66811,2.10673 0,1.341089 -0.66811,2.106729 -0.6681,0.760764 -1.83851,0.760764 -1.17528,0 -1.84339,-0.760764 -0.66323,-0.76564 -0.66323,-2.106729 0,-1.345967 0.66323,-2.10673 0.66811,-0.760764 1.84339,-0.760764 z"
       id="path572"
       style="fill:#ffffff" /><path
       d="m 134.04212,85.423511 v -2.955274 h 0.89731 v 7.588129 h -0.89731 v -0.819284 q -0.28285,0.487669 -0.71688,0.726627 -0.42915,0.234081 -1.03386,0.234081 -0.98996,0 -1.61418,-0.790024 -0.61934,-0.790023 -0.61934,-2.077469 0,-1.287447 0.61934,-2.07747 0.62422,-0.790024 1.61418,-0.790024 0.60471,0 1.03386,0.238958 0.43403,0.234081 0.71688,0.72175 z m -3.05769,1.906786 q 0,0.989967 0.40477,1.555663 0.40964,0.56082 1.12163,0.56082 0.712,0 1.12164,-0.56082 0.40965,-0.565696 0.40965,-1.555663 0,-0.989968 -0.40965,-1.550788 -0.40964,-0.565696 -1.12164,-0.565696 -0.71199,0 -1.12163,0.565696 -0.40477,0.56082 -0.40477,1.550788 z"
       id="path574"
       style="fill:#ffffff" /><path
       d="m 141.45956,87.101092 v 0.438902 h -4.12568 q 0.0585,0.926571 0.55594,1.41424 0.5023,0.482792 1.39474,0.482792 0.51692,0 0.99972,-0.126794 0.48767,-0.126793 0.96558,-0.380381 v 0.848544 q -0.48279,0.204821 -0.98997,0.312108 -0.50717,0.107287 -1.02898,0.107287 -1.30695,0 -2.07259,-0.760764 -0.76077,-0.760763 -0.76077,-2.057963 0,-1.341089 0.72175,-2.126236 0.72663,-0.790024 1.95556,-0.790024 1.10213,0 1.74098,0.711997 0.64372,0.70712 0.64372,1.926292 z m -0.89731,-0.263341 q -0.01,-0.73638 -0.41452,-1.175282 -0.39989,-0.438902 -1.06312,-0.438902 -0.75101,0 -1.20454,0.424272 -0.44866,0.424272 -0.51693,1.194789 z"
       id="path576"
       style="fill:#ffffff" /><path
       d="m 148.57953,83.74593 -1.33622,3.62338 h 2.67731 z m -0.55595,-0.970461 h 1.11677 l 2.77483,7.280897 h -1.0241 l -0.66323,-1.867772 h -3.28201 l -0.66323,1.867772 h -1.03874 z"
       id="path578"
       style="fill:#ffffff" /><path
       d="m 156.35785,85.423511 v -2.955274 h 0.89731 v 7.588129 h -0.89731 v -0.819284 q -0.28285,0.487669 -0.71688,0.726627 -0.42915,0.234081 -1.03386,0.234081 -0.98996,0 -1.61418,-0.790024 -0.61934,-0.790023 -0.61934,-2.077469 0,-1.287447 0.61934,-2.07747 0.62422,-0.790024 1.61418,-0.790024 0.60471,0 1.03386,0.238958 0.43403,0.234081 0.71688,0.72175 z m -3.05769,1.906786 q 0,0.989967 0.40477,1.555663 0.40964,0.56082 1.12164,0.56082 0.71199,0 1.12163,-0.56082 0.40965,-0.565696 0.40965,-1.555663 0,-0.989968 -0.40965,-1.550788 -0.40964,-0.565696 -1.12163,-0.565696 -0.712,0 -1.12164,0.565696 -0.40477,0.56082 -0.40477,1.550788 z"
       id="path580"
       style="fill:#ffffff" /><path
       d="m 163.3559,85.642962 q 0.33649,-0.60471 0.80465,-0.892434 0.46816,-0.287725 1.10213,-0.287725 0.85342,0 1.31671,0.599833 0.46329,0.594956 0.46329,1.697088 v 3.296642 h -0.90219 v -3.267382 q 0,-0.785147 -0.27797,-1.165529 -0.27797,-0.380382 -0.84855,-0.380382 -0.69736,0 -1.10213,0.463286 -0.40476,0.463285 -0.40476,1.263063 v 3.086944 h -0.90219 v -3.267382 q 0,-0.790024 -0.27797,-1.165529 -0.27797,-0.380382 -0.8583,-0.380382 -0.68761,0 -1.09238,0.468163 -0.40476,0.463285 -0.40476,1.258186 v 3.086944 h -0.90219 v -5.461892 h 0.90219 v 0.848544 q 0.30723,-0.502299 0.73638,-0.741257 0.42914,-0.238958 1.01922,-0.238958 0.59496,0 1.00948,0.302355 0.41939,0.302355 0.61934,0.877804 z"
       id="path582"
       style="fill:#ffffff" /><path
       d="m 168.83242,84.594474 h 0.89731 v 5.461892 h -0.89731 z m 0,-2.126237 h 0.89731 v 1.136269 h -0.89731 z"
       id="path584"
       style="fill:#ffffff" /><path
       d="m 176.14745,86.759724 v 3.296642 h -0.89731 v -3.267382 q 0,-0.775394 -0.30235,-1.160652 -0.30236,-0.385259 -0.90707,-0.385259 -0.72662,0 -1.14602,0.463286 -0.41939,0.463285 -0.41939,1.263063 v 3.086944 h -0.90219 v -5.461892 h 0.90219 v 0.848544 q 0.32186,-0.492546 0.75588,-0.73638 0.4389,-0.243835 1.00948,-0.243835 0.9412,0 1.42399,0.585203 0.48279,0.580326 0.48279,1.711718 z"
       id="path586"
       style="fill:#ffffff" /><path
       d="m 177.9372,84.594474 h 0.89731 v 5.461892 h -0.89731 z m 0,-2.126237 h 0.89731 v 1.136269 h -0.89731 z"
       id="path588"
       style="fill:#ffffff" /><path
       d="m 184.19399,84.755404 v 0.848544 q -0.38038,-0.195067 -0.79002,-0.292601 -0.40964,-0.09753 -0.84854,-0.09753 -0.66811,0 -1.0046,0.204821 -0.33162,0.204821 -0.33162,0.614463 0,0.312108 0.23896,0.492546 0.23896,0.175561 0.96071,0.336491 l 0.30723,0.06827 q 0.95583,0.204821 1.35572,0.580326 0.40476,0.370628 0.40476,1.038735 0,0.760763 -0.6047,1.204542 -0.59984,0.443779 -1.6532,0.443779 -0.4389,0 -0.91682,-0.08778 -0.47304,-0.0829 -0.99972,-0.253588 v -0.926571 q 0.49742,0.258464 0.98021,0.390135 0.4828,0.126794 0.95583,0.126794 0.63397,0 0.97534,-0.214575 0.34137,-0.219451 0.34137,-0.614462 0,-0.365752 -0.24871,-0.56082 -0.24384,-0.195067 -1.07775,-0.375505 l -0.31211,-0.07315 q -0.83391,-0.175561 -1.20454,-0.536436 -0.37063,-0.365752 -0.37063,-0.999721 0,-0.770517 0.54619,-1.189913 0.54619,-0.419395 1.55079,-0.419395 0.49742,0 0.93632,0.07315 0.4389,0.07315 0.80953,0.219451 z"
       id="path590"
       style="fill:#ffffff" /><path
       d="m 186.80302,83.043686 v 1.550788 h 1.84826 v 0.697366 h -1.84826 v 2.965028 q 0,0.668106 0.18043,0.858297 0.18532,0.190191 0.74614,0.190191 h 0.92169 v 0.75101 h -0.92169 q -1.03874,0 -1.43375,-0.385259 -0.39501,-0.390135 -0.39501,-1.414239 V 85.29184 h -0.65835 v -0.697366 h 0.65835 v -1.550788 z"
       id="path592"
       style="fill:#ffffff" /><path
       d="m 192.99642,85.433264 q -0.15118,-0.08778 -0.33162,-0.126794 -0.17556,-0.04389 -0.39013,-0.04389 -0.76077,0 -1.17041,0.497422 -0.40476,0.492546 -0.40476,1.419117 v 2.877247 h -0.90219 v -5.461892 h 0.90219 v 0.848544 q 0.28284,-0.497423 0.73638,-0.73638 0.45353,-0.243835 1.10213,-0.243835 0.0926,0 0.20482,0.01463 0.11216,0.0098 0.24871,0.03414 z"
       id="path594"
       style="fill:#ffffff" /><path
       d="m 196.41985,87.31079 q -1.0875,0 -1.5069,0.248711 -0.41939,0.248711 -0.41939,0.848544 0,0.477915 0.31211,0.760763 0.31698,0.277972 0.85829,0.277972 0.74614,0 1.19479,-0.526683 0.45353,-0.531559 0.45353,-1.409363 V 87.31079 Z m 1.78975,-0.370629 v 3.116205 h -0.89732 v -0.829037 q -0.30723,0.497422 -0.76564,0.73638 -0.4584,0.234081 -1.12163,0.234081 -0.8388,0 -1.33622,-0.468162 -0.49254,-0.473039 -0.49254,-1.263063 0,-0.921694 0.61446,-1.389856 0.61934,-0.468163 1.84339,-0.468163 h 1.25818 v -0.08778 q 0,-0.61934 -0.40964,-0.955831 -0.40476,-0.341368 -1.14114,-0.341368 -0.46817,0 -0.91194,0.112164 -0.44378,0.112163 -0.85342,0.336491 v -0.829037 q 0.49254,-0.190191 0.95583,-0.282848 0.46328,-0.09753 0.90218,-0.09753 1.18504,0 1.77024,0.614463 0.58521,0.614463 0.58521,1.862895 z"
       id="path596"
       style="fill:#ffffff" /><path
       d="m 203.98847,84.804171 v 0.838791 q -0.38038,-0.209698 -0.76564,-0.312108 -0.38038,-0.107287 -0.77051,-0.107287 -0.87293,0 -1.35572,0.555942 -0.4828,0.551066 -0.4828,1.550788 0,0.999721 0.4828,1.555663 0.48279,0.551066 1.35572,0.551066 0.39013,0 0.77051,-0.10241 0.38526,-0.107287 0.76564,-0.316985 v 0.829037 q -0.3755,0.175561 -0.78027,0.263342 -0.39988,0.08778 -0.85342,0.08778 -1.2338,0 -1.96043,-0.775394 -0.72662,-0.775393 -0.72662,-2.092099 0,-1.336213 0.7315,-2.101854 0.73638,-0.76564 2.01407,-0.76564 0.41452,0 0.80953,0.08778 0.39502,0.0829 0.76564,0.253588 z m -1.26794,5.252195 q 0.26822,0.302355 0.39989,0.555943 0.13167,0.258464 0.13167,0.492545 0,0.434026 -0.2926,0.653477 -0.2926,0.224327 -0.86805,0.224327 -0.22433,0 -0.4389,-0.02926 -0.2097,-0.02926 -0.4194,-0.08778 v -0.638847 q 0.16581,0.0829 0.34625,0.117041 0.18044,0.03901 0.40964,0.03901 0.28773,0 0.43403,-0.117041 0.1463,-0.117041 0.1463,-0.341368 0,-0.146301 -0.10729,-0.360875 -0.10241,-0.209698 -0.32186,-0.507176 z"
       id="path598"
       style="fill:#ffffff" /><path
       d="m 208.03125,87.31079 q -1.0875,0 -1.5069,0.248711 -0.4194,0.248711 -0.4194,0.848544 0,0.477915 0.31211,0.760763 0.31699,0.277972 0.8583,0.277972 0.74613,0 1.19479,-0.526683 0.45353,-0.531559 0.45353,-1.409363 V 87.31079 Z m 1.78974,-0.370629 v 3.116205 h -0.89731 v -0.829037 q -0.30723,0.497422 -0.76564,0.73638 -0.45841,0.234081 -1.12164,0.234081 -0.83879,0 -1.33621,-0.468162 -0.49255,-0.473039 -0.49255,-1.263063 0,-0.921694 0.61447,-1.389856 0.61934,-0.468163 1.84339,-0.468163 h 1.25818 v -0.08778 q 0,-0.61934 -0.40964,-0.955831 -0.40477,-0.341368 -1.14115,-0.341368 -0.46816,0 -0.91194,0.112164 -0.44378,0.112163 -0.85342,0.336491 v -0.829037 q 0.49255,-0.190191 0.95583,-0.282848 0.46329,-0.09753 0.90219,-0.09753 1.18504,0 1.77024,0.614463 0.5852,0.614463 0.5852,1.862895 z m -2.33593,-3.56486 -0.27797,-0.268218 q -0.10729,-0.09753 -0.19019,-0.141424 -0.078,-0.04877 -0.14143,-0.04877 -0.18531,0 -0.27309,0.180437 -0.0878,0.175561 -0.0975,0.575449 h -0.60958 q 0.01,-0.658353 0.25846,-1.014351 0.24871,-0.360875 0.69249,-0.360875 0.18532,0 0.34137,0.06827 0.15605,0.06827 0.33649,0.229204 l 0.27797,0.268218 q 0.10729,0.09753 0.18532,0.146301 0.0829,0.04389 0.1463,0.04389 0.18531,0 0.27309,-0.175561 0.0878,-0.180438 0.0975,-0.580326 h 0.60958 q -0.01,0.658353 -0.25846,1.019228 -0.24871,0.355998 -0.69249,0.355998 -0.18532,0 -0.34137,-0.06827 -0.15605,-0.06827 -0.33649,-0.229205 z"
       id="path600"
       style="fill:#ffffff" /><path
       d="m 213.78574,85.223567 q -0.72175,0 -1.14114,0.565696 -0.4194,0.560819 -0.4194,1.541034 0,0.980214 0.41452,1.54591 0.4194,0.560819 1.14602,0.560819 0.71688,0 1.13627,-0.565696 0.4194,-0.565696 0.4194,-1.541033 0,-0.970462 -0.4194,-1.536158 -0.41939,-0.570572 -1.13627,-0.570572 z m 0,-0.760764 q 1.17041,0 1.83851,0.760764 0.66811,0.760763 0.66811,2.10673 0,1.341089 -0.66811,2.106729 -0.6681,0.760764 -1.83851,0.760764 -1.17528,0 -1.84339,-0.760764 -0.66323,-0.76564 -0.66323,-2.106729 0,-1.345967 0.66323,-2.10673 0.66811,-0.760764 1.84339,-0.760764 z"
       id="path602"
       style="fill:#ffffff" /><path
       d="m 224.5486,85.423511 v -2.955274 h 0.89731 v 7.588129 h -0.89731 v -0.819284 q -0.28285,0.487669 -0.71688,0.726627 -0.42915,0.234081 -1.03386,0.234081 -0.98996,0 -1.61418,-0.790024 -0.61934,-0.790023 -0.61934,-2.077469 0,-1.287447 0.61934,-2.07747 0.62422,-0.790024 1.61418,-0.790024 0.60471,0 1.03386,0.238958 0.43403,0.234081 0.71688,0.72175 z m -3.05769,1.906786 q 0,0.989967 0.40477,1.555663 0.40964,0.56082 1.12164,0.56082 0.71199,0 1.12163,-0.56082 0.40965,-0.565696 0.40965,-1.555663 0,-0.989968 -0.40965,-1.550788 -0.40964,-0.565696 -1.12163,-0.565696 -0.712,0 -1.12164,0.565696 -0.40477,0.56082 -0.40477,1.550788 z"
       id="path604"
       style="fill:#ffffff" /><path
       d="m 231.96604,87.101092 v 0.438902 h -4.12568 q 0.0585,0.926571 0.55594,1.41424 0.5023,0.482792 1.39473,0.482792 0.51693,0 0.99972,-0.126794 0.48767,-0.126793 0.96559,-0.380381 v 0.848544 q -0.48279,0.204821 -0.98997,0.312108 -0.50718,0.107287 -1.02898,0.107287 -1.30695,0 -2.07259,-0.760764 -0.76077,-0.760763 -0.76077,-2.057963 0,-1.341089 0.72175,-2.126236 0.72663,-0.790024 1.95555,-0.790024 1.10214,0 1.74098,0.711997 0.64373,0.70712 0.64373,1.926292 z m -0.89731,-0.263341 q -0.01,-0.73638 -0.41452,-1.175282 -0.39989,-0.438902 -1.06312,-0.438902 -0.75101,0 -1.20454,0.424272 -0.44866,0.424272 -0.51693,1.194789 z"
       id="path606"
       style="fill:#ffffff" /><path
       d="m 237.63764,83.584999 v 5.661837 h 1.18991 q 1.5069,0 2.20426,-0.682737 0.70225,-0.682737 0.70225,-2.155497 0,-1.463007 -0.70225,-2.140866 -0.69736,-0.682737 -2.20426,-0.682737 z m -0.98509,-0.80953 h 2.02382 q 2.11649,0 3.10645,0.88268 0.98997,0.877804 0.98997,2.750453 0,1.882402 -0.99484,2.765083 -0.99485,0.882681 -3.10158,0.882681 h -2.02382 z"
       id="path608"
       style="fill:#ffffff" /><path
       d="m 246.78631,87.31079 q -1.08751,0 -1.5069,0.248711 -0.4194,0.248711 -0.4194,0.848544 0,0.477915 0.31211,0.760763 0.31699,0.277972 0.8583,0.277972 0.74613,0 1.19479,-0.526683 0.45353,-0.531559 0.45353,-1.409363 V 87.31079 Z m 1.78974,-0.370629 v 3.116205 h -0.89731 v -0.829037 q -0.30723,0.497422 -0.76564,0.73638 -0.45841,0.234081 -1.12164,0.234081 -0.83879,0 -1.33621,-0.468162 -0.49255,-0.473039 -0.49255,-1.263063 0,-0.921694 0.61446,-1.389856 0.61934,-0.468163 1.84339,-0.468163 h 1.25819 v -0.08778 q 0,-0.61934 -0.40964,-0.955831 -0.40477,-0.341368 -1.14115,-0.341368 -0.46816,0 -0.91194,0.112164 -0.44378,0.112163 -0.85342,0.336491 v -0.829037 q 0.49255,-0.190191 0.95583,-0.282848 0.46329,-0.09753 0.90219,-0.09753 1.18503,0 1.77024,0.614463 0.5852,0.614463 0.5852,1.862895 z"
       id="path610"
       style="fill:#ffffff" /><path
       d="m 251.31187,83.043686 v 1.550788 h 1.84826 v 0.697366 h -1.84826 v 2.965028 q 0,0.668106 0.18043,0.858297 0.18532,0.190191 0.74614,0.190191 h 0.92169 v 0.75101 h -0.92169 q -1.03874,0 -1.43375,-0.385259 -0.39501,-0.390135 -0.39501,-1.414239 V 85.29184 h -0.65835 v -0.697366 h 0.65835 v -1.550788 z"
       id="path612"
       style="fill:#ffffff" /><path
       d="m 256.82253,87.31079 q -1.0875,0 -1.5069,0.248711 -0.41939,0.248711 -0.41939,0.848544 0,0.477915 0.31211,0.760763 0.31698,0.277972 0.85829,0.277972 0.74614,0 1.19479,-0.526683 0.45353,-0.531559 0.45353,-1.409363 V 87.31079 Z m 1.78974,-0.370629 v 3.116205 h -0.89731 v -0.829037 q -0.30723,0.497422 -0.76564,0.73638 -0.45841,0.234081 -1.12163,0.234081 -0.8388,0 -1.33622,-0.468162 -0.49254,-0.473039 -0.49254,-1.263063 0,-0.921694 0.61446,-1.389856 0.61934,-0.468163 1.84339,-0.468163 h 1.25818 v -0.08778 q 0,-0.61934 -0.40964,-0.955831 -0.40476,-0.341368 -1.14114,-0.341368 -0.46817,0 -0.91194,0.112164 -0.44378,0.112163 -0.85343,0.336491 v -0.829037 q 0.49255,-0.190191 0.95584,-0.282848 0.46328,-0.09753 0.90218,-0.09753 1.18504,0 1.77024,0.614463 0.5852,0.614463 0.5852,1.862895 z"
       id="path614"
       style="fill:#ffffff" /><path
       d="m 264.39115,84.804171 v 0.838791 q -0.38039,-0.209698 -0.76564,-0.312108 -0.38039,-0.107287 -0.77052,-0.107287 -0.87293,0 -1.35572,0.555942 -0.48279,0.551066 -0.48279,1.550788 0,0.999721 0.48279,1.555663 0.48279,0.551066 1.35572,0.551066 0.39013,0 0.77052,-0.10241 0.38525,-0.107287 0.76564,-0.316985 v 0.829037 q -0.37551,0.175561 -0.78027,0.263342 -0.39989,0.08778 -0.85343,0.08778 -1.2338,0 -1.96042,-0.775394 -0.72663,-0.775393 -0.72663,-2.092099 0,-1.336213 0.7315,-2.101854 0.73638,-0.76564 2.01408,-0.76564 0.41451,0 0.80953,0.08778 0.39501,0.0829 0.76564,0.253588 z"
       id="path616"
       style="fill:#ffffff" /><path
       d="m 270.62355,87.101092 v 0.438902 h -4.12568 q 0.0585,0.926571 0.55595,1.41424 0.50229,0.482792 1.39473,0.482792 0.51693,0 0.99972,-0.126794 0.48767,-0.126793 0.96558,-0.380381 v 0.848544 q -0.48279,0.204821 -0.98996,0.312108 -0.50718,0.107287 -1.02898,0.107287 -1.30696,0 -2.0726,-0.760764 -0.76076,-0.760763 -0.76076,-2.057963 0,-1.341089 0.72175,-2.126236 0.72663,-0.790024 1.95555,-0.790024 1.10213,0 1.74098,0.711997 0.64372,0.70712 0.64372,1.926292 z m -0.89731,-0.263341 q -0.01,-0.73638 -0.41452,-1.175282 -0.39989,-0.438902 -1.06312,-0.438902 -0.75101,0 -1.20454,0.424272 -0.44865,0.424272 -0.51693,1.194789 z"
       id="path618"
       style="fill:#ffffff" /><path
       d="m 276.63652,86.759724 v 3.296642 h -0.89731 v -3.267382 q 0,-0.775394 -0.30236,-1.160652 -0.30235,-0.385259 -0.90706,-0.385259 -0.72663,0 -1.14602,0.463286 -0.4194,0.463285 -0.4194,1.263063 v 3.086944 h -0.90218 v -5.461892 h 0.90218 v 0.848544 q 0.32186,-0.492546 0.75589,-0.73638 0.4389,-0.243835 1.00947,-0.243835 0.94121,0 1.424,0.585203 0.48279,0.580326 0.48279,1.711718 z"
       id="path620"
       style="fill:#ffffff" /><path
       d="m 279.31382,83.043686 v 1.550788 h 1.84827 v 0.697366 h -1.84827 v 2.965028 q 0,0.668106 0.18044,0.858297 0.18531,0.190191 0.74613,0.190191 h 0.9217 v 0.75101 h -0.9217 q -1.03873,0 -1.43375,-0.385259 -0.39501,-0.390135 -0.39501,-1.414239 V 85.29184 h -0.65835 v -0.697366 h 0.65835 v -1.550788 z"
       id="path622"
       style="fill:#ffffff" /><path
       d="m 287.01412,87.101092 v 0.438902 h -4.12568 q 0.0585,0.926571 0.55594,1.41424 0.5023,0.482792 1.39473,0.482792 0.51693,0 0.99972,-0.126794 0.48767,-0.126793 0.96559,-0.380381 v 0.848544 q -0.48279,0.204821 -0.98997,0.312108 -0.50717,0.107287 -1.02898,0.107287 -1.30695,0 -2.07259,-0.760764 -0.76077,-0.760763 -0.76077,-2.057963 0,-1.341089 0.72175,-2.126236 0.72663,-0.790024 1.95556,-0.790024 1.10213,0 1.74097,0.711997 0.64373,0.70712 0.64373,1.926292 z m -0.89731,-0.263341 q -0.01,-0.73638 -0.41452,-1.175282 -0.39989,-0.438902 -1.06312,-0.438902 -0.75101,0 -1.20454,0.424272 -0.44866,0.424272 -0.51693,1.194789 z"
       id="path624"
       style="fill:#ffffff" /><path
       d="m 291.65184,85.433264 q -0.15118,-0.08778 -0.33161,-0.126794 -0.17556,-0.04389 -0.39014,-0.04389 -0.76076,0 -1.1704,0.497422 -0.40477,0.492546 -0.40477,1.419117 v 2.877247 h -0.90219 v -5.461892 h 0.90219 v 0.848544 q 0.28285,-0.497423 0.73638,-0.73638 0.45353,-0.243835 1.10213,-0.243835 0.0927,0 0.20482,0.01463 0.11217,0.0098 0.24872,0.03414 z"
       id="path626"
       style="fill:#ffffff" /></g><g
     id="g82"
     transform="matrix(1.9838101,0,0,1.9838101,-130.79398,-53.597422)"
     style="display:inline;fill:#ffffff"
     inkscape:label="sedac">

		<path
   class="st0"
   d="m 200.19321,53.216566 c 2.60558,0 5.00468,-0.924245 6.36156,-1.84849 l -1.10123,-1.681339 c -1.18972,0.806257 -2.92022,1.504357 -5.12268,1.504357 -4.42457,0 -7.9544,-3.441337 -7.9544,-8.564012 0,-4.739212 2.94971,-8.328034 7.9544,-8.328034 2.16313,0 4.33608,0.983239 5.28983,1.759997 l 1.16022,-1.7305 c -1.32737,-1.042234 -3.35284,-2.05497 -6.24357,-2.05497 -7.2563,0 -11.24825,5.319323 -11.24825,10.412501 0,5.584797 3.66748,10.53049 10.90412,10.53049 z"
   id="path62"
   inkscape:label="c"
   style="fill:#ffffff;stroke-width:0.983239" />
		
		
		
		<path
   class="st0"
   d="m 175.25462,32.436012 -8.52583,20.942991 h 2.80754 l 2.25016,-6.162132 h 7.9891 l 2.15725,6.162132 h 3.3546 l -7.80331,-20.942991 z m -2.66303,12.675206 c 1.1354,-2.900434 2.25015,-5.800868 3.32363,-9.568336 h 0.0619 c 1.05283,3.767468 2.06437,6.667902 3.10687,9.568336 z"
   id="path54"
   inkscape:label="a"
   style="display:inline;fill:#ffffff;stroke-width:1.03218" /><path
   class="st0"
   d="m 151.68232,32.436012 h -6.70298 v 20.942991 h 6.22492 c 7.42515,0 11.84973,-4.160118 11.84973,-11.107211 0.0102,-5.014518 -2.92938,-9.83578 -11.37167,-9.83578 z m -0.5696,18.857846 h -3.23452 v -16.76253 h 3.85497 c 5.50275,0 8.10664,3.020917 8.10664,7.689607 0.0203,6.143549 -2.82766,9.072923 -8.72709,9.072923 z"
   id="path76"
   inkscape:label="d"
   style="fill:#ffffff;stroke-width:1.01714" /><polygon
   class="st0"
   points="143.1,62.14 143.1,60.12 133.1,60.12 133.1,80.4 144.34,80.4 144.34,78.37 135.91,78.37 135.91,70.72 142.95,70.72 142.95,68.69 135.91,68.69 135.91,62.14 "
   id="polygon46"
   transform="matrix(1.0326918,0,0,1.0326918,-10.29304,-29.64942)"
   inkscape:label="e"
   style="display:inline;fill:#ffffff" />
		
		<path
   class="st0"
   d="m 114.63725,51.35448 c -1.90659,0 -3.21371,-0.923812 -4.39301,-1.768999 l -1.24814,1.680549 c 1.44469,1.4152 3.75421,2.112973 5.70011,2.112973 3.24317,0 6.27995,-2.083489 6.27995,-5.297171 0,-2.604361 -1.62158,-4.451984 -4.39302,-6.476506 -2.60435,-1.877104 -3.84266,-2.948332 -3.84266,-4.393015 0,-1.562616 1.13019,-2.751777 3.15472,-2.751777 1.20881,0 2.51591,0.717428 3.49869,1.444683 l 1.32674,-1.444683 c -1.13018,-1.277611 -2.88935,-2.024522 -5.00233,-2.024522 -3.15472,0 -5.78857,2.054005 -5.78857,4.776299 0,2.859882 1.87711,4.108011 3.55766,5.405276 1.65107,1.218645 4.68785,2.859884 4.68785,5.405278 -0.01,2.260387 -1.54296,3.331615 -3.53799,3.331615 z"
   id="path80"
   inkscape:label="s"
   style="fill:#ffffff;stroke-width:0.982773" />
	</g></g>
</svg>
